<?xml version="1.0" standalone="no"?>
<!DOCTYPE svg PUBLIC "-//W3C//DTD SVG 20010904//EN"
 "http://www.w3.org/TR/2001/REC-SVG-20010904/DTD/svg10.dtd">
<svg version="1.0" xmlns="http://www.w3.org/2000/svg"
 width="265.000000pt" height="266.000000pt" viewBox="0 0 265.000000 266.000000"
 preserveAspectRatio="xMidYMid meet">

<g transform="translate(0.000000,266.000000) scale(0.100000,-0.100000)"
fill="#000000" stroke="none">
<path d="M394 2639 c-34 -10 -83 -31 -110 -46 -73 -40 -173 -146 -212 -225
-64 -130 -63 -119 -60 -1071 l3 -862 26 -66 c70 -179 178 -284 359 -345 52
-18 101 -19 925 -19 l870 0 67 23 c139 48 248 145 314 277 65 132 65 136 61
1066 -3 920 0 869 -68 1007 -64 130 -216 246 -358 272 -33 6 -378 10 -905 9
-813 0 -854 -1 -912 -20z m1111 -304 c210 -44 368 -132 499 -277 31 -34 56
-65 56 -68 0 -4 -38 -17 -84 -30 l-84 -22 -74 62 c-77 64 -192 126 -293 157
-46 14 -92 18 -200 17 -130 -1 -147 -3 -234 -33 -145 -49 -261 -128 -362 -247
-61 -71 -132 -213 -155 -309 -23 -95 -24 -279 -1 -363 l17 -63 -53 -89 c-28
-49 -55 -89 -58 -89 -11 -1 -49 96 -70 177 -27 101 -36 278 -19 379 39 244
157 459 330 600 84 69 282 167 385 192 100 24 298 27 400 6z m758 -304 c54
-33 72 -80 70 -181 -2 -127 -67 -284 -128 -312 -36 -16 -42 -3 -16 40 59 99
90 219 77 305 -10 66 -42 106 -116 145 l-65 34 72 -5 c50 -3 82 -11 106 -26z
m-176 -197 c12 -52 18 -48 -100 -79 -46 -12 -66 -22 -63 -31 3 -7 8 -29 12
-48 3 -20 10 -38 14 -41 5 -3 37 4 72 15 34 11 64 20 66 20 3 0 18 -39 25 -71
6 -25 4 -26 -68 -44 -41 -11 -75 -21 -75 -25 0 -5 18 -77 25 -97 3 -9 22 -7
72 8 119 34 110 35 117 -6 4 -20 9 -42 12 -49 3 -9 -36 -24 -127 -50 -72 -21
-137 -40 -144 -42 -10 -4 -30 63 -75 251 -34 141 -61 257 -59 259 2 1 51 15
108 30 57 15 113 31 125 36 42 17 52 12 63 -36z m-331 -139 c-2 -6 -38 -19
-79 -29 -98 -24 -99 -26 -88 -62 5 -16 12 -41 15 -56 l6 -27 67 20 c38 10 71
19 74 19 9 0 29 -57 29 -79 0 -12 -20 -22 -67 -35 -38 -11 -71 -20 -74 -22 -3
-2 5 -45 17 -96 13 -51 24 -94 24 -95 1 -7 -105 -32 -110 -26 -11 13 -121 495
-114 502 3 3 67 22 142 41 l137 36 13 -41 c7 -22 10 -45 8 -50z m-363 -274
c70 -129 126 -235 125 -236 -12 -10 -110 -35 -117 -31 -5 4 -17 26 -27 51 -9
25 -19 45 -23 45 -3 0 -35 -8 -71 -18 l-65 -19 -3 -56 -3 -56 -42 -11 c-23 -6
-48 -13 -55 -15 -11 -4 -12 44 -6 268 3 149 9 274 11 277 8 8 117 39 133 37 8
-1 71 -104 143 -236z m-476 109 c34 -20 68 -74 60 -94 -3 -7 -26 -17 -51 -23
-43 -9 -47 -9 -61 13 -18 28 -56 32 -79 8 -20 -20 -20 -48 0 -68 16 -17 25
-20 118 -36 77 -13 103 -31 128 -87 39 -88 8 -172 -77 -213 -87 -42 -187 -27
-224 34 -38 63 -36 72 13 85 62 15 70 14 81 -11 21 -48 115 -25 115 27 0 23
-30 65 -47 65 -41 0 -144 25 -169 41 -60 37 -83 138 -47 200 40 67 173 100
240 59z m1360 -147 c-12 -285 -101 -491 -288 -674 l-78 -75 43 -55 c23 -30 75
-84 115 -121 l72 -66 -66 -7 c-125 -14 -222 19 -291 98 l-38 43 -56 -23 c-31
-12 -83 -30 -116 -39 -77 -21 -315 -30 -411 -15 -59 9 -82 8 -130 -4 -252 -67
-475 -9 -550 143 -24 48 -28 69 -28 137 1 66 6 94 33 161 33 82 102 206 118
211 5 1 22 -27 38 -63 75 -167 248 -326 425 -391 l75 -27 -32 -13 c-18 -7 -71
-24 -118 -38 -81 -23 -87 -24 -117 -8 -98 50 -225 156 -282 236 -22 31 -43 56
-47 57 -11 0 -23 -70 -22 -132 4 -201 216 -287 504 -204 276 81 556 233 780
427 l95 82 -70 -72 c-86 -90 -229 -210 -346 -293 -48 -34 -87 -63 -86 -65 2
-1 36 6 78 17 158 39 284 115 408 245 110 117 169 236 205 416 5 21 15 28 73
45 l68 19 3 75 c2 51 8 80 19 92 9 10 18 18 21 18 3 0 2 -62 -1 -137z"/>
<path d="M1215 1414 l0 -95 35 6 c19 4 39 10 43 15 7 6 -66 170 -76 170 -1 0
-2 -43 -2 -96z"/>
</g>
</svg>
